<?xml version="1.0" encoding="UTF-8"?>
<svg version="1.1" xmlns="http://www.w3.org/2000/svg" width="2048" height="2048">
<path d="M0 0 C1.86296614 -0.0070215 3.72593204 -0.01410832 5.58889771 -0.02125549 C11.51239364 -0.04066359 17.43585048 -0.04568967 23.359375 -0.046875 C24.36816963 -0.04731686 25.37696426 -0.04775871 26.41632843 -0.04821396 C56.74547781 -0.05518299 86.90361524 0.18549341 117.109375 3.203125 C118.00553528 3.29033813 118.90169556 3.37755127 119.82501221 3.46740723 C159.23752608 7.30937472 198.35183658 13.07659996 237.109375 21.203125 C238.39473145 21.47205566 239.68008789 21.74098633 241.00439453 22.01806641 C275.43270999 29.31806586 309.47492637 38.41490108 342.88598633 49.46807861 C345.17230278 50.22392876 347.46011145 50.97514036 349.74804688 51.72607422 C372.90155974 59.34596822 395.61706099 67.81206395 418.109375 77.203125 C418.74796448 77.46891357 419.38655396 77.73470215 420.04449463 78.00854492 C491.25180271 107.67307615 558.21539269 145.59986769 621.109375 190.203125 C621.88313477 190.7511377 622.65689453 191.29915039 623.45410156 191.86376953 C639.91720002 203.55235864 655.75741578 215.98226691 671.36962891 228.77929688 C672.92885827 230.05538804 674.493386 231.32499881 676.05859375 232.59375 C686.52971322 241.09293602 696.74212934 249.87165181 706.6796875 258.98828125 C708.71452915 260.84319317 710.77258747 262.65741298 712.859375 264.453125 C722.49087027 272.84375278 731.70254006 281.69926236 740.6730957 290.78833008 C744.05454069 294.19931194 747.55453083 297.38288846 751.22241211 300.48608398 C753.09691145 302.1917838 754.70065861 303.96810852 756.3359375 305.90234375 C760.06296815 310.21465552 764.04212749 314.21379411 768.109375 318.203125 C772.7543063 322.75907294 777.21922704 327.37895779 781.46582031 332.31005859 C783.89976824 335.1135096 786.44468283 337.80835846 788.984375 340.515625 C793.52286024 345.38898049 797.80286297 350.40616477 801.97265625 355.6015625 C804.06819994 358.15299229 806.24900655 360.58639273 808.484375 363.015625 C812.46199185 367.38549819 816.11814094 371.93922036 819.73730469 376.60424805 C823.33403439 381.23705993 827.01834988 385.79064 830.734375 390.328125 C836.03635739 396.82683174 841.17007025 403.42303711 846.109375 410.203125 C846.58842285 410.86006348 847.0674707 411.51700195 847.56103516 412.19384766 C859.05564431 427.98416873 870.40568791 443.86372123 881.109375 460.203125 C881.53541016 460.8518457 881.96144531 461.50056641 882.40039062 462.16894531 C900.68270617 490.05286214 917.46474747 518.76033885 933.109375 548.203125 C933.64272461 549.20134277 934.17607422 550.19956055 934.72558594 551.22802734 C943.46340269 567.61471371 951.46525219 584.28050123 959.109375 601.203125 C959.58616699 602.25467773 960.06295898 603.30623047 960.55419922 604.38964844 C985.11332735 658.73434849 1004.62236309 715.37039083 1019.109375 773.203125 C1019.2952417 773.94119385 1019.4811084 774.6792627 1019.67260742 775.43969727 C1033.38167229 829.95231291 1042.22237994 885.56913768 1046.796875 941.578125 C1046.88828262 942.69252457 1046.88828262 942.69252457 1046.98153687 943.82943726 C1048.47605402 962.28632558 1049.26918423 980.70968686 1049.3125 999.2265625 C1049.31948023 1001.09113588 1049.32652118 1002.95570904 1049.33361816 1004.82028198 C1049.35287623 1010.73956604 1049.35779318 1016.65881301 1049.359375 1022.578125 C1049.35996414 1023.58550217 1049.36055328 1024.59287933 1049.36116028 1025.63078308 C1049.37320253 1054.79175109 1049.19301366 1083.80771968 1046.33721924 1112.85516357 C1046.10441009 1115.25428899 1045.88604669 1117.65436234 1045.67138672 1120.05517578 C1041.08410278 1171.04493268 1032.34597658 1221.50822984 1020.109375 1271.203125 C1019.91408203 1271.99632141 1019.71878906 1272.78951782 1019.51757812 1273.60675049 C1013.55944643 1297.70658205 1006.60579727 1321.42389763 998.83532715 1344.99987793 C998.13660489 1347.12048294 997.4416031 1349.2422777 996.74707031 1351.36425781 C982.67406805 1394.22484942 965.06842394 1435.77207627 945.109375 1476.203125 C944.38664457 1477.67704696 943.66397627 1479.15099939 942.94140625 1480.625 C941.40752435 1483.737537 939.84745055 1486.83582721 938.27050781 1489.92675781 C937.39217662 1491.64870063 936.51709277 1493.37230038 935.64355469 1495.09667969 C927.79854293 1510.55720733 919.54538936 1525.68166071 910.66992188 1540.57421875 C909.26440783 1542.94195579 907.87695125 1545.31870083 906.5 1547.703125 C881.52718493 1590.87877318 852.19371985 1631.9271151 820.54931641 1670.44726562 C819.26571799 1672.01248092 817.98974428 1673.583942 816.71484375 1675.15625 C808.2186202 1685.62727146 799.43950678 1695.83734154 790.32421875 1705.7734375 C788.46930683 1707.80827915 786.65508702 1709.86633747 784.859375 1711.953125 C776.46874722 1721.58462027 767.61323764 1730.79629006 758.52416992 1739.7668457 C755.11318806 1743.14829069 751.92961154 1746.64828083 748.82641602 1750.31616211 C747.1207162 1752.19066145 745.34439148 1753.79440861 743.41015625 1755.4296875 C739.09784448 1759.15671815 735.09870589 1763.13587749 731.109375 1767.203125 C726.55342706 1771.8480563 721.93354221 1776.31297704 717.00244141 1780.55957031 C714.1989904 1782.99351824 711.50414154 1785.53843283 708.796875 1788.078125 C703.92351951 1792.61661024 698.90633523 1796.89661297 693.7109375 1801.06640625 C691.15950771 1803.16194994 688.72610727 1805.34275655 686.296875 1807.578125 C681.92236674 1811.55996087 677.36408425 1815.22054583 672.69287109 1818.84204102 C668.87622932 1821.80357984 665.11725783 1824.82272329 661.38964844 1827.89550781 C652.65004165 1835.09104511 643.63166013 1841.84906829 634.46777344 1848.49316406 C632.21199471 1850.1287204 629.96104915 1851.77072253 627.7109375 1853.4140625 C611.19157234 1865.44721355 594.5575427 1877.32693761 577.10351562 1887.97265625 C574.97132245 1889.28830924 572.85937183 1890.632451 570.75 1891.984375 C553.11415021 1903.28078576 535.00100583 1913.7974084 516.61962891 1923.83251953 C514.80538981 1924.82309902 512.99276489 1925.81663681 511.18115234 1926.81201172 C497.04318706 1934.57158548 482.80536522 1941.95532224 468.18408203 1948.76074219 C464.93803795 1950.28350131 461.70898322 1951.83888113 458.48046875 1953.3984375 C400.32249029 1981.29028283 338.62682139 2002.54259981 276.109375 2018.203125 C275.37130615 2018.3889917 274.6332373 2018.5748584 273.87280273 2018.76635742 C222.89096663 2031.58748681 170.85022877 2040.39918551 118.480896 2044.99023438 C116.13656116 2045.20068451 113.794168 2045.42642506 111.45166016 2045.65625 C54.18169321 2051.19090931 -6.08729434 2051.22115165 -63.33905029 2045.45959473 C-66.04062359 2045.188048 -68.74311052 2044.92717293 -71.44580078 2044.66699219 C-160.30628974 2036.01099102 -247.53699533 2016.49949328 -416.890625 1949.203125 C-418.75641336 1948.33182339 -420.62229643 1947.46072454 -422.48828125 1946.58984375 C-448.52947338 1934.37994181 -474.25601711 1920.68886129 -498.72021484 1905.54248047 C-501.48514319 1903.8362491 -504.26054295 1902.14746617 -507.03515625 1900.45703125 C-518.11237435 1893.69405605 -529.16264629 1886.91307198 -539.87451172 1879.58007812 C-542.26049212 1877.95051534 -544.65567639 1876.33487076 -547.05078125 1874.71875 C-566.13494295 1861.81353826 -584.65125078 1848.27522498 -602.890625 1834.203125 C-603.55578125 1833.69007812 -604.2209375 1833.17703125 -604.90625 1832.6484375 C-622.64219981 1818.92960453 -639.93678517 1804.57708241 -656.4609375 1789.41796875 C-658.49577915 1787.56305683 -660.55383747 1785.74883702 -662.640625 1783.953125 C-672.27212027 1775.56249722 -681.48379006 1766.70698764 -690.4543457 1757.61791992 C-693.83579069 1754.20693806 -697.33578083 1751.02336154 -701.00366211 1747.92016602 C-702.87816145 1746.2144662 -704.48190861 1744.43814148 -706.1171875 1742.50390625 C-709.84421815 1738.19159448 -713.82337749 1734.19245589 -717.890625 1730.203125 C-722.5355563 1725.64717706 -727.00047704 1721.02729221 -731.24707031 1716.09619141 C-733.68101824 1713.2927404 -736.22593283 1710.59789154 -738.765625 1707.890625 C-743.30411024 1703.01726951 -747.58411297 1698.00008523 -751.75390625 1692.8046875 C-753.84944994 1690.25325771 -756.03025655 1687.81985727 -758.265625 1685.390625 C-762.24324185 1681.02075181 -765.89939094 1676.46702964 -769.51855469 1671.80200195 C-773.11528439 1667.16919007 -776.79959988 1662.61561 -780.515625 1658.078125 C-785.81760739 1651.57941826 -790.95132025 1644.98321289 -795.890625 1638.203125 C-796.36967285 1637.54618652 -796.8487207 1636.88924805 -797.34228516 1636.21240234 C-808.83689431 1620.42208127 -820.18693791 1604.54252877 -830.890625 1588.203125 C-831.52967773 1587.23004395 -831.52967773 1587.23004395 -832.18164062 1586.23730469 C-850.2324661 1558.70645309 -866.83302715 1530.39147182 -882.24707031 1501.30224609 C-883.81572024 1498.34436698 -885.3955671 1495.3926992 -886.9765625 1492.44140625 C-894.86253009 1477.62725488 -901.9773884 1462.49234851 -908.890625 1447.203125 C-909.60798828 1445.62144531 -909.60798828 1445.62144531 -910.33984375 1444.0078125 C-934.89690076 1389.66586561 -954.40443765 1333.0325675 -968.890625 1275.203125 C-969.0764917 1274.46505615 -969.2623584 1273.7269873 -969.45385742 1272.96655273 C-980.5709885 1228.76048186 -988.50565375 1183.86843324 -993.578125 1138.578125 C-993.72343155 1137.31411362 -993.72343155 1137.31411362 -993.87167358 1136.02456665 C-997.87569006 1100.78189064 -999.40859782 1065.42413928 -999.28173828 1029.97363281 C-999.26464819 1025.16500959 -999.27485164 1020.35688516 -999.29206085 1015.54827881 C-999.39852722 980.33520233 -997.6410977 945.2003769 -993.640625 910.203125 C-993.53835602 909.28561462 -993.43608704 908.36810425 -993.33071899 907.42279053 C-985.93345701 841.41033602 -972.42373539 775.57240609 -951.62963867 712.44696045 C-950.848982 710.07668615 -950.07392909 707.70461592 -949.29882812 705.33251953 C-941.07725668 680.2552961 -931.96113245 655.59600697 -921.890625 631.203125 C-921.61881409 630.54411194 -921.34700317 629.88509888 -921.06695557 629.20611572 C-892.0151779 558.95322965 -854.66833149 492.09691279 -810.39697266 430.30664062 C-808.8418046 428.13495052 -807.29399683 425.95812262 -805.74609375 423.78125 C-794.51265771 408.04283582 -782.56990765 392.8943691 -770.31445312 377.94287109 C-769.03836196 376.38364173 -767.76875119 374.819114 -766.5 373.25390625 C-758.00081398 362.78278678 -749.22209819 352.57037066 -740.10546875 342.6328125 C-738.25055683 340.59797085 -736.43633702 338.53991253 -734.640625 336.453125 C-726.24999722 326.82162973 -717.39448764 317.60995994 -708.30541992 308.6394043 C-704.89443806 305.25795931 -701.71086154 301.75796917 -698.60766602 298.09008789 C-696.9019662 296.21558855 -695.12564148 294.61184139 -693.19140625 292.9765625 C-688.87909448 289.24953185 -684.87995589 285.27037251 -680.890625 281.203125 C-676.33467706 276.5581937 -671.71479221 272.09327296 -666.78369141 267.84667969 C-663.9802404 265.41273176 -661.28539154 262.86781717 -658.578125 260.328125 C-653.70476951 255.78963976 -648.68758523 251.50963703 -643.4921875 247.33984375 C-640.94075771 245.24430006 -638.50735727 243.06349345 -636.078125 240.828125 C-631.70825181 236.85050815 -627.15452964 233.19435906 -622.48950195 229.57519531 C-617.85669007 225.97846561 -613.30311 222.29415012 -608.765625 218.578125 C-602.26691826 213.27614261 -595.67071289 208.14242975 -588.890625 203.203125 C-587.90521729 202.48455322 -587.90521729 202.48455322 -586.89990234 201.75146484 C-571.10958127 190.25685569 -555.23002877 178.90681209 -538.890625 168.203125 C-538.2419043 167.77708984 -537.59318359 167.35105469 -536.92480469 166.91210938 C-509.04088786 148.62979383 -480.33341115 131.84775253 -450.890625 116.203125 C-449.89240723 115.66977539 -448.89418945 115.13642578 -447.86572266 114.58691406 C-431.48183795 105.85059123 -414.8366818 97.78791668 -397.890625 90.203125 C-396.85424896 89.73876038 -396.85424896 89.73876038 -395.79693604 89.26501465 C-317.77646074 54.36512507 -235.85698962 29.01262032 0 0 Z " fill="#3080DC" transform="translate(998.890625,-0.203125)"/>
<path d="M0 0 C1.07744476 -0.00006042 2.15488953 -0.00012085 3.26498413 -0.00018311 C18.3803555 0.01187319 33.33965333 0.30827685 48.38183594 1.92285156 C50.81832731 2.17515923 53.25255569 2.37445909 55.6953125 2.5546875 C72.59342337 3.88099784 89.28522825 7.12187186 105.9375 10.1875 C106.88431641 10.36007324 107.83113281 10.53264648 108.80664062 10.71044922 C165.69405393 21.33867156 222.05483411 47.98849379 263.9375 88.1875 C264.49969238 88.72246094 265.06188477 89.25742187 265.64111328 89.80859375 C274.24532701 98.03520052 281.85403871 106.62792576 288.9375 116.1875 C289.78773745 117.30730911 290.6379977 118.4271009 291.48828125 119.546875 C301.51205329 132.95393685 309.32068424 147.84107335 315.9375 163.1875 C316.43765625 164.34378906 316.9378125 165.50007812 317.453125 166.69140625 C336.55388814 214.09145794 336.09071138 268.16987654 323.9375 317.1875 C323.68830811 318.22704834 323.68830811 318.22704834 323.43408203 319.28759766 C318.93725447 337.99344859 312.35740565 355.90824982 303.9375 373.1875 C303.48745605 374.11353027 303.03741211 375.03956055 302.57373047 375.99365234 C295.7619242 389.85828722 288.11454467 402.75977043 278.9375 415.1875 C278.45925781 415.83541504 277.98101563 416.48333008 277.48828125 417.15087891 C270.86775027 426.0222977 263.59797599 434.20690693 255.9375 442.1875 C255.45168457 442.70054687 254.96586914 443.21359375 254.46533203 443.7421875 C243.23812696 455.56582611 230.53625671 465.22907733 216.9375 474.1875 C215.87015625 474.90421875 214.8028125 475.6209375 213.703125 476.359375 C197.66913695 486.7597372 178.77852567 494.82007984 159.9375 498.1875 C158.761875 498.40792969 157.58625 498.62835937 156.375 498.85546875 C141.59071624 501.22923845 123.60735302 503.37963642 110.6484375 494.64453125 C104.42590897 489.70044949 101.22142737 483.98529742 99.9375 476.1875 C97.28948692 451.8257797 113.74091225 427.41682843 124.36450195 406.46411133 C136.2250422 383.0617155 146.2358875 359.31258243 153.9375 334.1875 C154.18193848 333.40101074 154.42637695 332.61452148 154.67822266 331.80419922 C157.91100551 321.20721536 159.89048447 310.41951877 161.6875 299.5 C162.00400513 297.59432251 162.00400513 297.59432251 162.3269043 295.65014648 C170.06574175 246.39404977 165.69995847 192.42894644 135.625 151.0625 C109.17158052 116.99919272 73.04166553 101.5602489 31.15942383 95.65478516 C26.92221822 95.13617907 22.7266279 94.99305729 18.4609375 94.94921875 C17.66607941 94.93933426 16.87122131 94.92944977 16.05227661 94.91926575 C-33.81907939 94.42882404 -80.23286325 105.11752499 -125.0625 127.1875 C-126.0819873 127.68765625 -127.10147461 128.1878125 -128.15185547 128.703125 C-157.49634682 143.22637896 -183.98975055 161.21242183 -209.0625 182.1875 C-209.95678711 182.93314209 -209.95678711 182.93314209 -210.86914062 183.69384766 C-227.60260197 197.69220906 -244.38707008 212.62423661 -258.4765625 229.32421875 C-260.36441407 231.54221185 -262.33952792 233.66992155 -264.3125 235.8125 C-268.8617233 240.85436339 -273.0315272 246.13932698 -277.1875 251.50390625 C-279.07292835 253.93454191 -280.98729527 256.33588467 -282.9375 258.71484375 C-291.210538 268.82479772 -298.68799288 279.40954957 -306.0625 290.1875 C-306.89963661 291.39590468 -307.73686547 292.60424545 -308.57421875 293.8125 C-322.88327635 314.66706204 -335.42369046 336.75865464 -347.0625 359.1875 C-347.82506104 360.64687988 -347.82506104 360.64687988 -348.60302734 362.13574219 C-373.60300025 410.18573886 -392.37892575 461.82715644 -406.0625 514.1875 C-406.44414307 515.64373779 -406.44414307 515.64373779 -406.83349609 517.12939453 C-415.48726919 550.40345312 -422.58347963 584.07579434 -426.68847656 618.22460938 C-427.0985467 621.47305013 -427.5561861 624.71242233 -428.0234375 627.953125 C-429.82756247 640.46753354 -431.44971215 652.97832354 -432.6875 665.5625 C-432.79835938 666.66851563 -432.90921875 667.77453125 -433.0234375 668.9140625 C-433.32842396 672.15272824 -433.60463943 675.39241349 -433.86010742 678.63534546 C-434.00623745 680.47803372 -434.1577934 682.32029446 -434.31274414 684.16226196 C-436.1792896 706.80336601 -436.37505285 729.36884709 -436.32324219 752.07495117 C-436.31185638 757.11103486 -436.31862583 762.14690693 -436.33011913 767.1829834 C-436.42796983 817.67875499 -432.62527271 867.43411984 -420.65673828 916.67529297 C-420.08537262 919.09080352 -419.5642807 921.51139719 -419.05859375 923.94140625 C-404.81526608 990.60612293 -372.15714174 1057.6634484 -325.5546875 1107.5078125 C-323.27212532 1109.9621035 -321.06787641 1112.46581987 -318.875 1115 C-315.86042704 1118.40512493 -312.69026594 1121.41141699 -309.21484375 1124.33984375 C-307.71512706 1125.62725935 -306.25093067 1126.95672659 -304.81640625 1128.31640625 C-264.08415915 1166.88812854 -210.67197959 1189.10789226 -155.875 1197.9375 C-155.15820068 1198.05311279 -154.44140137 1198.16872559 -153.70288086 1198.2878418 C-105.88531144 1205.53726495 -54.2176737 1199.93150128 -8.0625 1186.1875 C-7.33168213 1185.97561035 -6.60086426 1185.7637207 -5.84790039 1185.54541016 C14.00937653 1179.77235381 33.28537894 1172.08163183 51.9375 1163.1875 C52.82147461 1162.76742676 53.70544922 1162.34735352 54.61621094 1161.91455078 C86.58941835 1146.60895256 117.2566859 1126.95720238 144.04296875 1103.68359375 C146.73064256 1101.36588314 149.47307505 1099.14669807 152.25 1096.9375 C164.20298701 1087.16246041 175.07546867 1076.14097772 186 1065.25 C186.49286499 1064.75981384 186.98572998 1064.26962769 187.49353027 1063.7645874 C193.19679007 1058.08489086 198.70031901 1052.3015464 203.9375 1046.1875 C205.3507355 1044.6426874 206.76690409 1043.10054675 208.1875 1041.5625 C212.73033455 1036.52771721 216.89470363 1031.24999081 221.046875 1025.89453125 C222.98948571 1023.39073661 224.95783233 1020.91123528 226.953125 1018.44921875 C227.46190186 1017.82039795 227.97067871 1017.19157715 228.49487305 1016.54370117 C229.44381296 1015.3734189 230.39543535 1014.20530186 231.35083008 1013.0402832 C240.12842873 1002.18505398 247.88885622 990.48386834 255.625 978.875 C256.05370392 978.23197937 256.48240784 977.58895874 256.92410278 976.92645264 C271.71642356 954.69171026 285.01460314 931.66823652 297.16796875 907.88671875 C297.96037964 906.34298584 297.96037964 906.34298584 298.76879883 904.76806641 C299.76090834 902.82840836 300.74455618 900.88438615 301.7175293 898.93505859 C306.41571796 889.72979404 312.12086009 880.47211079 321.9375 876.1875 C328.36067622 875.149167 333.67880999 876.40982881 338.9375 880.1875 C346.36372819 886.49221618 349.41012143 894.3923287 350.28125 903.96484375 C352.29448096 957.28633381 322.58106971 1011.94253134 295.9375 1056.1875 C295.38803711 1057.10450684 294.83857422 1058.02151367 294.27246094 1058.96630859 C282.93393619 1077.82862291 270.33738751 1095.73862621 256.9375 1113.1875 C256.24793213 1114.08758789 256.24793213 1114.08758789 255.54443359 1115.00585938 C248.63730865 1123.99320748 241.38261347 1132.64263611 233.9375 1141.1875 C233.27878906 1141.94804688 232.62007812 1142.70859375 231.94140625 1143.4921875 C202.51528243 1177.33562783 202.51528243 1177.33562783 186.18359375 1191.22265625 C183.72036139 1193.37744908 181.33789586 1195.6056131 178.95288086 1197.84619141 C172.49004044 1203.91454564 165.87982538 1209.66755065 158.9375 1215.1875 C157.82073342 1216.09527121 156.70489779 1217.00418852 155.58984375 1217.9140625 C140.95457899 1229.81056426 125.78342405 1240.95845367 109.9375 1251.1875 C109.24817383 1251.63770508 108.55884766 1252.08791016 107.84863281 1252.55175781 C66.97072399 1279.21285257 23.40253264 1298.70919279 -23.0625 1313.1875 C-24.80635986 1313.73277344 -24.80635986 1313.73277344 -26.58544922 1314.2890625 C-43.81200208 1319.59194925 -61.32896869 1323.10113319 -79.0625 1326.1875 C-79.9994873 1326.35233887 -80.93647461 1326.51717773 -81.90185547 1326.68701172 C-162.20989888 1340.45631752 -248.03132106 1331.0970704 -435.9609375 1249.79296875 C-450.25433301 1239.63918234 -463.89747519 1228.76110447 -477.0625 1217.1875 C-477.96613281 1216.39730469 -478.86976563 1215.60710937 -479.80078125 1214.79296875 C-487.07031693 1208.28089554 -493.96554531 1201.38854123 -500.875 1194.5 C-501.62534012 1193.75367813 -501.62534012 1193.75367813 -502.39083862 1192.99227905 C-508.16844645 1187.23813575 -513.78505986 1181.40730894 -519.0625 1175.1875 C-519.908125 1174.22328125 -520.75375 1173.2590625 -521.625 1172.265625 C-540.65020513 1150.19150879 -557.78633062 1125.60909986 -572.0625 1100.1875 C-572.50722656 1099.39666016 -572.95195313 1098.60582031 -573.41015625 1097.79101562 C-577.04111865 1091.29885485 -580.5786374 1084.75966756 -584.0625 1078.1875 C-584.52414551 1077.31770508 -584.98579102 1076.44791016 -585.46142578 1075.55175781 C-599.36360609 1049.13010054 -609.84467769 1021.33418889 -619.41012573 993.10736084 C-620.05466569 991.21055546 -620.70709584 989.31643713 -621.35961914 987.42236328 C-624.43715656 978.38568581 -627.0802529 969.29168828 -629.5 960.0625 C-629.69292633 959.32939606 -629.88585266 958.59629211 -630.08462524 957.8409729 C-636.97098921 931.56812417 -641.68650636 904.98443839 -645.76367188 878.15313721 C-646.02904192 876.40758118 -646.29750145 874.66249546 -646.56640625 872.91748047 C-649.35180945 854.55201229 -650.6494237 835.98375144 -651.90774536 817.46005249 C-652.00681115 816.00528378 -652.10851146 814.55069058 -652.21359253 813.09634399 C-653.45872501 795.55613743 -653.34966906 777.95027457 -653.375 760.375 C-653.37659245 759.54171928 -653.37818489 758.70843857 -653.37982559 757.84990692 C-653.41664986 735.10479278 -653.02980209 712.49894223 -651.25 689.8125 C-651.12584213 688.21551773 -651.12584213 688.21551773 -650.99917603 686.58627319 C-649.92245397 673.1408561 -648.295581 659.80689816 -646.38290405 646.45690918 C-645.97676928 643.5802727 -645.60927896 640.69972091 -645.25390625 637.81640625 C-643.60976012 624.52169655 -641.49689053 611.35925584 -639.0625 598.1875 C-638.74756592 596.4554834 -638.74756592 596.4554834 -638.42626953 594.68847656 C-633.74826946 569.0800782 -628.26448998 543.58484029 -620.46484375 518.7265625 C-619.51999975 515.71467071 -618.63909175 512.69595076 -617.81640625 509.6484375 C-595.37862301 426.7599244 -555.74582697 344.29805147 -504.63916016 275.33349609 C-503.01211313 273.1189183 -501.41477347 270.88544188 -499.82421875 268.64453125 C-493.04919319 259.11223964 -485.9706008 249.92624863 -478.50244141 240.92724609 C-476.4830368 238.48738899 -474.49379039 236.02330436 -472.5 233.5625 C-463.29370191 222.34755506 -453.72187175 211.56074725 -443.76757812 201.00585938 C-441.59975 198.69400601 -439.45889865 196.3582481 -437.31933594 194.02026367 C-429.88106194 185.89866153 -422.30196588 177.99962811 -413.92578125 170.83203125 C-412.05798207 169.18351248 -410.30794376 167.46446419 -408.5625 165.6875 C-405.66633973 162.75255187 -402.6632082 160.01021401 -399.5390625 157.3203125 C-397.58607535 155.63840243 -395.64581535 153.94475094 -393.7109375 152.2421875 C-385.9752272 145.45441582 -378.09629926 138.93314781 -369.94628906 132.65039062 C-367.94934568 131.09962796 -365.96994845 129.52826701 -363.9921875 127.953125 C-339.51457169 108.53946014 -313.29134214 91.47483296 -286.0625 76.1875 C-285.24974609 75.72698242 -284.43699219 75.26646484 -283.59960938 74.79199219 C-218.35683182 37.92552726 -145.58065396 12.9984785 -71.0625 4.1875 C-69.87269531 4.04473633 -68.68289063 3.90197266 -67.45703125 3.75488281 C-63.80606159 3.32324586 -60.15379765 2.90697195 -56.5 2.5 C-55.43128662 2.38035889 -54.36257324 2.26071777 -53.26147461 2.13745117 C-35.5378983 0.27444243 -17.80713703 -0.01542144 0 0 Z " fill="#FEFEFE" transform="translate(1140.0625,357.8125)"/>
<path d="M0 0 C0.66 0.33 1.32 0.66 2 1 C-15.82 18.82 -33.64 36.64 -52 55 C-52 52 -52 52 -50.18334961 49.85864258 C-49.34811768 49.04548584 -48.51288574 48.2323291 -47.65234375 47.39453125 C-46.73646484 46.49283203 -45.82058594 45.59113281 -44.87695312 44.66210938 C-43.89757269 43.71178873 -42.91775212 42.76192148 -41.9375 41.8125 C-34.3899123 34.51192062 -34.3899123 34.51192062 -27.31640625 26.76171875 C-24.48016805 23.43487661 -21.3977018 20.63526226 -18.0703125 17.80810547 C-14.36915289 14.57570122 -10.95226439 11.05631942 -7.5 7.5625 C-6.77296875 6.83095703 -6.0459375 6.09941406 -5.296875 5.34570312 C-3.52890501 3.56610176 -1.76333622 1.78419082 0 0 Z " fill="#13A8D2" transform="translate(326,273)"/>
</svg>
